<?xml version="1.0" standalone="no"?>
<!DOCTYPE svg PUBLIC "-//W3C//DTD SVG 20010904//EN"
 "http://www.w3.org/TR/2001/REC-SVG-20010904/DTD/svg10.dtd">
<svg version="1.0" xmlns="http://www.w3.org/2000/svg"
 width="131.000000pt" height="48.000000pt" viewBox="0 0 131.000000 48.000000"
 preserveAspectRatio="xMidYMid meet">

<g transform="translate(0.000000,48.000000) scale(0.100000,-0.100000)"
fill="#000000" stroke="none">
<path d="M805 403 c-11 -2 -44 -9 -73 -14 -29 -6 -74 -25 -103 -45 -53 -35
-89 -46 -194 -60 -49 -6 -55 -8 -35 -15 14 -4 18 -7 9 -8 -9 -1 -28 -10 -42
-21 -14 -11 -40 -20 -59 -20 -44 0 -59 -11 -51 -38 5 -22 18 -27 60 -23 13 1
23 -2 23 -7 0 -5 14 -7 31 -4 17 2 42 -1 55 -8 23 -13 23 -15 7 -32 -13 -15
-13 -18 -2 -18 8 0 15 -8 16 -18 1 -14 -7 -19 -31 -20 -31 -2 -32 -1 -28 33
l4 35 -70 0 c-39 0 -72 3 -75 8 -2 4 -2 0 1 -8 3 -8 5 -26 6 -40 1 -14 8 -29
16 -35 8 -5 80 -10 160 -10 94 -1 153 -5 167 -13 12 -7 43 -12 68 -12 41 0 51
5 79 35 18 19 38 35 45 35 7 0 10 4 7 9 -3 4 -8 28 -11 52 -10 78 -54 114
-114 93 -27 -10 -69 -64 -76 -98 -2 -12 -6 -33 -9 -47 -3 -14 -12 -26 -20 -26
-8 0 -15 3 -14 6 2 20 -4 30 -15 25 -7 -2 -30 11 -50 31 -20 19 -43 35 -51 35
-8 0 -30 14 -47 31 l-31 31 28 -3 c16 -2 35 -7 42 -12 8 -7 12 -4 12 7 0 9 9
17 23 18 12 1 29 2 37 3 9 0 34 9 55 20 47 22 145 44 198 45 39 0 49 8 109 78
l26 32 -31 -1 c-18 -1 -41 -3 -52 -6z m-208 -109 c-3 -3 -12 -4 -19 -1 -8 3
-5 6 6 6 11 1 17 -2 13 -5z m-101 -30 c-38 -13 -71 -22 -73 -20 -7 6 100 45
122 45 11 0 -11 -11 -49 -25z m189 -182 c-3 -3 -11 0 -18 7 -9 10 -8 11 6 5
10 -3 15 -9 12 -12z m-191 -7 c-4 -8 -11 -15 -16 -15 -6 0 -5 6 2 15 7 8 14
15 16 15 2 0 1 -7 -2 -15z m-135 -21 c10 -9 -55 -3 -69 6 -10 6 -2 7 25 3 22
-3 42 -7 44 -9z"/>
<path d="M895 399 c-24 -12 -71 -77 -62 -86 8 -7 44 -7 130 2 72 8 69 4 52 64
-9 29 -77 41 -120 20z m32 -55 c-3 -3 -12 -4 -19 -1 -8 3 -5 6 6 6 11 1 17 -2
13 -5z"/>
<path d="M1043 360 c7 -19 17 -28 25 -25 8 3 18 5 23 5 19 0 8 20 -21 35 -39
20 -40 20 -27 -15z"/>
<path d="M1110 346 c0 -2 14 -6 30 -8 17 -3 30 -1 30 4 0 4 -13 8 -30 8 -16 0
-30 -2 -30 -4z"/>
<path d="M1171 304 c0 -11 3 -14 6 -6 3 7 2 16 -1 19 -3 4 -6 -2 -5 -13z"/>
<path d="M1184 268 c-6 -19 -7 -19 -16 -5 -12 22 -42 22 -59 0 -13 -15 -12
-15 8 -2 18 11 25 11 35 1 9 -9 9 -12 -5 -12 -24 0 -53 -66 -37 -85 6 -8 9
-19 5 -25 -4 -6 3 -10 17 -10 27 1 57 56 63 120 5 44 0 52 -11 18z"/>
<path d="M634 264 c-18 -14 -17 -15 21 -10 22 3 47 6 55 6 13 0 13 1 0 10 -22
14 -54 12 -76 -6z"/>
<path d="M1049 260 c-3 -8 -34 -22 -70 -32 -64 -17 -64 -18 -14 -12 28 3 57
10 65 14 9 5 18 2 26 -8 12 -17 44 -10 44 10 0 10 -2 10 -9 0 -14 -23 -26 -18
-31 13 -4 18 -8 24 -11 15z"/>
<path d="M508 211 c7 -4 12 -13 10 -18 -2 -6 0 -11 5 -12 25 -3 28 1 12 19
-10 11 -23 20 -29 20 -6 0 -5 -4 2 -9z"/>
<path d="M975 164 c-33 -7 -73 -16 -90 -19 -34 -7 -58 -25 -33 -25 35 0 174
33 193 46 24 17 11 17 -70 -2z"/>
<path d="M1053 153 c-15 -5 -18 -43 -4 -43 9 0 26 39 19 44 -1 2 -9 1 -15 -1z"/>
<path d="M548 122 c-16 -2 -28 -8 -28 -13 0 -8 48 -2 59 7 8 7 -4 9 -31 6z"/>
</g>
</svg>
